<svg width="60" height="60" viewBox="0 0 60 60" fill="none" xmlns="http://www.w3.org/2000/svg">
<path d="M30 7.5C17.5931 7.5 7.5 17.5931 7.5 30C7.5 42.4069 17.5931 52.5 30 52.5C42.4069 52.5 52.5 42.4069 52.5 30C52.5 17.5931 42.4069 7.5 30 7.5ZM30 11.25C40.3781 11.25 48.75 19.6219 48.75 30C48.75 40.3781 40.3781 48.75 30 48.75C19.6219 48.75 11.25 40.3781 11.25 30C11.25 19.6219 19.6219 11.25 30 11.25ZM30 18.75C25.875 18.75 22.5 22.125 22.5 26.25H26.25C26.25 24.1556 27.9056 22.5 30 22.5C32.0944 22.5 33.75 24.1556 33.75 26.25C33.7495 26.9507 33.5285 27.6335 33.1182 28.2015C32.708 28.7696 32.1294 29.1942 31.4644 29.415L30.7031 29.6475C29.9537 29.9 29.3021 30.3808 28.8397 31.0224C28.3774 31.664 28.1275 32.4342 28.125 33.225V35.625H31.875V33.2231L32.6362 32.9888C34.049 32.5139 35.2777 31.6087 36.1499 30.4002C37.0222 29.1917 37.4943 27.7404 37.5 26.25C37.5 22.125 34.125 18.75 30 18.75ZM28.125 37.5V41.25H31.875V37.5H28.125Z" fill="#ED4599"/>
</svg>
