<svg width="536" height="536" viewBox="0 0 536 536" fill="none" xmlns="http://www.w3.org/2000/svg">
<g clip-path="url(#clip0)" filter="url(#filter0_d)">
<path d="M267.997 497.286C398.492 497.286 504.279 391.499 504.279 261.004C504.279 130.508 398.492 24.721 267.997 24.721C137.501 24.721 31.714 130.508 31.714 261.004C31.714 391.499 137.501 497.286 267.997 497.286Z" fill="#9400D3"/>
<path d="M268 516.989C202.412 516.989 136.823 492.032 86.8885 442.116C-12.9625 342.265 -12.9625 179.762 86.8885 79.8915C186.739 -19.9395 349.262 -19.9595 449.113 79.8915C548.964 179.762 548.964 342.245 449.113 442.116C399.177 492.032 333.568 516.989 268 516.989ZM114.941 107.944C30.5654 192.34 30.5654 329.667 114.941 414.063C199.357 498.439 336.683 498.459 421.06 414.063C505.437 329.667 505.436 192.34 421.06 107.944C336.643 23.5684 199.337 23.5684 114.941 107.944Z" fill="#9400D3"/>
<path d="M199.119 349.685C194.04 349.685 188.961 347.741 185.092 343.872C177.335 336.114 177.335 323.576 185.092 315.819L325.355 175.556C333.112 167.799 345.651 167.799 353.408 175.556C361.165 183.313 361.165 195.852 353.408 203.609L213.145 343.872C209.256 347.741 204.197 349.685 199.119 349.685Z" fill="white"/>
<path d="M339.361 349.685C334.282 349.685 329.204 347.741 325.335 343.872L185.072 203.609C177.315 195.852 177.315 183.313 185.072 175.556C192.83 167.799 205.368 167.799 213.125 175.556L353.388 315.819C361.145 323.576 361.145 336.114 353.388 343.872C349.52 347.741 344.441 349.685 339.361 349.685Z" fill="white"/>
</g>
<defs>
<filter id="filter0_d" x="0" y="0" width="536" height="536" filterUnits="userSpaceOnUse" color-interpolation-filters="sRGB">
<feFlood flood-opacity="0" result="BackgroundImageFix"/>
<feColorMatrix in="SourceAlpha" type="matrix" values="0 0 0 0 0 0 0 0 0 0 0 0 0 0 0 0 0 0 127 0"/>
<feOffset dy="7"/>
<feGaussianBlur stdDeviation="6"/>
<feColorMatrix type="matrix" values="0 0 0 0 0 0 0 0 0 0 0 0 0 0 0 0 0 0 0.25 0"/>
<feBlend mode="normal" in2="BackgroundImageFix" result="effect1_dropShadow"/>
<feBlend mode="normal" in="SourceGraphic" in2="effect1_dropShadow" result="shape"/>
</filter>
<clipPath id="clip0">
<rect width="512" height="512" fill="white" transform="translate(12 5)"/>
</clipPath>
</defs>
</svg>
