<svg width="48" height="50" viewBox="0 0 48 50" fill="none" xmlns="http://www.w3.org/2000/svg">
<path d="M11.0769 23.0466C17.1946 23.0466 22.1539 17.8875 22.1539 11.5233C22.1539 5.15916 17.1946 0 11.0769 0C4.95931 0 0 5.15916 0 11.5233C0 17.8875 4.95931 23.0466 11.0769 23.0466Z" fill="#34253C"/>
<path d="M36.9231 23.0466C43.0407 23.0466 48 17.8875 48 11.5233C48 5.15916 43.0407 0 36.9231 0C30.8055 0 25.8462 5.15916 25.8462 11.5233C25.8462 17.8875 30.8055 23.0466 36.9231 23.0466Z" fill="#34253C"/>
<path d="M36.9231 49.9344C43.0407 49.9344 48 44.7753 48 38.4111C48 32.0469 43.0407 26.8877 36.9231 26.8877C30.8055 26.8877 25.8462 32.0469 25.8462 38.4111C25.8462 44.7753 30.8055 49.9344 36.9231 49.9344Z" fill="#34253C"/>
<path d="M11.0769 49.9344C17.1946 49.9344 22.1539 44.7753 22.1539 38.4111C22.1539 32.0469 17.1946 26.8877 11.0769 26.8877C4.95931 26.8877 0 32.0469 0 38.4111C0 44.7753 4.95931 49.9344 11.0769 49.9344Z" fill="#34253C"/>
</svg>
