<svg width="51" height="57" viewBox="0 0 51 57" fill="none" xmlns="http://www.w3.org/2000/svg">
<path d="M33.7969 22.9688V22.0469C34.0414 22.0469 34.2759 21.9497 34.4487 21.7769C34.6216 21.604 34.7188 21.3695 34.7188 21.125V18.3594C34.7188 15.9144 33.7475 13.5696 32.0186 11.8407C30.2898 10.1119 27.945 9.14062 25.5 9.14062C23.055 9.14062 20.7102 10.1119 18.9814 11.8407C17.2525 13.5696 16.2812 15.9144 16.2812 18.3594V21.125C16.2812 21.3695 16.3784 21.604 16.5513 21.7769C16.7241 21.9497 16.9586 22.0469 17.2031 22.0469V22.9688C17.2052 24.512 17.6377 26.0241 18.452 27.3351C19.2663 28.6461 20.43 29.7039 21.8125 30.3898V31.4832L16.4232 32.949C15.0604 33.3263 13.8584 34.139 13.0006 35.2632C12.1427 36.3874 11.6761 37.7612 11.6719 39.1753V45.0938C11.6719 45.3382 11.769 45.5727 11.9419 45.7456C12.1148 45.9185 12.3493 46.0156 12.5938 46.0156H38.4062C38.6507 46.0156 38.8852 45.9185 39.0581 45.7456C39.231 45.5727 39.3281 45.3382 39.3281 45.0938V39.1753C39.3238 37.7608 38.8568 36.3865 37.9984 35.2621C37.14 34.1378 35.9374 33.3251 34.574 32.948L29.1875 31.4832V30.3898C30.57 29.7039 31.7337 28.6461 32.548 27.3351C33.3623 26.0241 33.7948 24.512 33.7969 22.9688ZM18.125 18.3594C18.125 16.4034 18.902 14.5275 20.2851 13.1445C21.6682 11.7614 23.544 10.9844 25.5 10.9844C27.456 10.9844 29.3318 11.7614 30.7149 13.1445C32.098 14.5275 32.875 16.4034 32.875 18.3594V20.158C32.1366 20.0547 31.4346 19.7727 30.8299 19.3365C30.2252 18.9003 29.7361 18.3231 29.4051 17.6551L29.0907 17.0254C29.0253 16.895 28.9299 16.782 28.8124 16.6956C28.6948 16.6093 28.5584 16.552 28.4145 16.5286C28.2705 16.5052 28.123 16.5163 27.9841 16.561C27.8453 16.6057 27.719 16.6827 27.6157 16.7857L26.0863 18.3133C25.4885 18.9143 24.7775 19.3907 23.9944 19.7151C23.2113 20.0395 22.3716 20.2054 21.524 20.2031H18.125V18.3594ZM19.0469 22.9688V22.0469H21.524C22.6138 22.0499 23.6935 21.8367 24.7004 21.4196C25.7073 21.0025 26.6214 20.3897 27.3898 19.6168L28.0352 18.9715C28.9116 20.4092 30.3193 21.4435 31.9531 21.8505V22.9688C31.9531 24.6802 31.2732 26.3216 30.063 27.5318C28.8529 28.742 27.2115 29.4219 25.5 29.4219C23.7885 29.4219 22.1471 28.742 20.937 27.5318C19.7268 26.3216 19.0469 24.6802 19.0469 22.9688ZM26.4219 38.6406V36.3074L29.7406 33.5417L31.0312 33.892V35.4906L25.5 41.0218L19.9688 35.4906V33.8948L21.2594 33.5445L24.5781 36.3101V38.6406H26.4219ZM37.4844 39.1753V44.1719H13.5156V39.1753C13.519 38.1651 13.8526 37.1836 14.4656 36.3806C15.0785 35.5775 15.9373 34.9969 16.9109 34.7273L18.125 34.4V35.875C18.1251 36.1195 18.2222 36.3539 18.3951 36.5268L24.8482 42.9799C25.0211 43.1527 25.2556 43.2498 25.5 43.2498C25.7444 43.2498 25.9789 43.1527 26.1518 42.9799L32.6049 36.5268C32.7778 36.3539 32.8749 36.1195 32.875 35.875V34.4L34.0863 34.73C35.0599 34.9993 35.9187 35.5794 36.5321 36.3818C37.1456 37.1843 37.4799 38.1653 37.4844 39.1753ZM27.6655 32.8725L25.5 34.6766L23.3345 32.8734C23.4342 32.7888 23.5145 32.6838 23.57 32.5654C23.6255 32.4471 23.6549 32.3182 23.6562 32.1875V31.0518C24.8689 31.3369 26.1311 31.3369 27.3438 31.0518V32.1875C27.3452 32.318 27.3747 32.4468 27.4302 32.5649C27.4857 32.6831 27.5659 32.788 27.6655 32.8725Z" fill="#ED4599"/>
<path d="M29.1875 23.8906H27.3437C27.3437 24.3796 27.1495 24.8486 26.8037 25.1944C26.4579 25.5401 25.989 25.7344 25.5 25.7344C25.011 25.7344 24.542 25.5401 24.1963 25.1944C23.8505 24.8486 23.6562 24.3796 23.6562 23.8906H21.8125C21.8125 24.8686 22.201 25.8065 22.8925 26.4981C23.5841 27.1896 24.522 27.5781 25.5 27.5781C26.478 27.5781 27.4159 27.1896 28.1074 26.4981C28.799 25.8065 29.1875 24.8686 29.1875 23.8906Z" fill="#ED4599"/>
<path d="M27.6286 3.70633L29.8411 1.49383L28.5358 0.192139L24.8483 3.87964C24.6754 4.05252 24.5783 4.28696 24.5783 4.5314C24.5783 4.77585 24.6754 5.01029 24.8483 5.18317L28.5358 8.87067L29.8393 7.56714L27.8443 5.5722C33.2653 6.12332 38.3156 8.57731 42.099 12.4986C45.8824 16.4199 48.154 21.5548 48.5107 26.992C48.8675 32.4292 47.2862 37.817 44.0476 42.199C40.809 46.581 36.1226 49.6738 30.8202 50.9285L31.2424 52.7224C36.9997 51.3568 42.0822 47.9849 45.5785 43.2113C49.0748 38.4377 50.7562 32.5747 50.3212 26.6737C49.8861 20.7727 47.3631 15.2196 43.2046 11.0104C39.046 6.80112 33.5239 4.211 27.6286 3.70448V3.70633Z" fill="#ED4599"/>
<path d="M22.4643 48.1296L21.1607 49.4331L23.1557 51.4281C17.7347 50.8769 12.6844 48.4229 8.90103 44.5017C5.11767 40.5804 2.84602 35.4454 2.48929 30.0082C2.13256 24.571 3.71381 19.1833 6.95239 14.8013C10.191 10.4193 14.8774 7.32648 20.1799 6.0718L19.7576 4.27783C13.9984 5.64172 8.91362 9.0132 5.41557 13.7874C1.91752 18.5615 0.23514 24.426 0.670267 30.3285C1.10539 36.231 3.62955 41.7853 7.78987 45.9949C11.9502 50.2045 17.4744 52.7939 23.3714 53.2985L21.1589 55.511L22.4624 56.8146L26.1499 53.1271C26.3227 52.9542 26.4198 52.7197 26.4198 52.4753C26.4198 52.2309 26.3227 51.9964 26.1499 51.8235L22.4643 48.1296Z" fill="#ED4599"/>
</svg>
