<svg width="48" height="48" viewBox="0 0 48 48" fill="none" xmlns="http://www.w3.org/2000/svg">
<path d="M40.9706 7.02947C36.4376 2.49647 30.4106 0 24 0C17.5894 0 11.5624 2.49647 7.02938 7.02947C2.49638 11.5625 0 17.5894 0 24C0 30.4106 2.49638 36.4376 7.02938 40.9705C11.5624 45.5034 17.5894 48 24 48C30.4106 48 36.4376 45.5035 40.9706 40.9705C45.5036 36.4375 48 30.4106 48 24C48 17.5894 45.5036 11.5624 40.9706 7.02947ZM24 43.2893C13.3638 43.2893 4.71075 34.6361 4.71075 24C4.71075 23.9826 4.71131 23.9653 4.71141 23.9481C4.71141 23.9437 4.71075 23.9394 4.71075 23.935C4.71075 23.9276 4.71169 23.9205 4.71187 23.9132C4.75866 13.4045 13.2512 4.85475 23.7379 4.71413C23.7598 4.71309 23.7816 4.71084 23.8038 4.71084C23.8171 4.71084 23.83 4.71244 23.8433 4.71281C23.8956 4.71244 23.9477 4.71084 24.0001 4.71084C34.6363 4.71084 43.2893 13.364 43.2893 24.0001C43.2893 34.6362 34.6362 43.2893 24 43.2893Z" fill="#34253C"/>
<path d="M38.6519 25.1587C37.8676 25.1587 37.2318 24.5229 37.2318 23.7386C37.2318 22.9543 37.8676 22.3185 38.6519 22.3185H40.3637C39.5597 14.4364 33.1672 8.18353 25.2238 7.59647V9.08662C25.2238 9.87093 24.588 10.5067 23.8037 10.5067C23.0194 10.5067 22.3836 9.87093 22.3836 9.08662V7.6304C14.5577 8.39728 8.32396 14.6712 7.61868 22.5147H9.15168C9.93599 22.5147 10.5718 23.1505 10.5718 23.9348C10.5718 24.7192 9.93599 25.355 9.15168 25.355H7.60706C8.26002 33.3247 14.6187 39.7029 22.5799 40.387V38.5867C22.5799 37.8024 23.2157 37.1666 24 37.1666C24.7843 37.1666 25.4201 37.8024 25.4201 38.5867V40.387C33.4464 39.6973 39.8438 33.2197 40.4077 25.1587H38.6519ZM29.7487 20.2596L25.0042 25.0042C24.7379 25.2705 24.3768 25.4201 24.0001 25.4201C23.6235 25.4201 23.2622 25.2705 22.9959 25.0042L14.7372 16.7454C14.1826 16.1909 14.1826 15.2917 14.7372 14.7371C15.2917 14.1825 16.1909 14.1825 16.7455 14.7371L24.0002 21.9917L27.7406 18.2512C28.2952 17.6966 29.1943 17.6966 29.7489 18.2512C30.3034 18.8058 30.3034 19.705 29.7487 20.2596Z" fill="#34253C"/>
</svg>
