<svg width="48" height="46" viewBox="0 0 48 46" fill="none" xmlns="http://www.w3.org/2000/svg">
<path d="M48 23C48 10.2961 37.2562 0 24 0C10.7438 0 0 10.2961 0 23C0 35.7039 10.7438 46 24 46C24.1406 46 24.2812 46 24.4219 45.991V28.0941H19.2656V22.3352H24.4219V18.0945C24.4219 13.1801 27.5531 10.5027 32.1281 10.5027C34.3219 10.5027 36.2062 10.6555 36.75 10.7273V15.8664H33.6C31.1156 15.8664 30.6281 16.9984 30.6281 18.6605V22.3262H36.5813L35.8031 28.0852H30.6281V45.1105C40.6594 42.3523 48 33.5027 48 23Z" fill="#ED4599"/>
</svg>
