<svg width="50" height="50" viewBox="0 0 50 50" fill="none" xmlns="http://www.w3.org/2000/svg">
<path d="M46.8194 24.0138L25.9861 3.18049C25.7259 2.92181 25.3739 2.77661 25.0069 2.77661C24.64 2.77661 24.288 2.92181 24.0278 3.18049L3.19444 24.0138C2.96691 24.2795 2.84801 24.6213 2.86151 24.9708C2.87501 25.3204 3.01992 25.652 3.26727 25.8993C3.51462 26.1467 3.84621 26.2916 4.19576 26.3051C4.54531 26.3186 4.88708 26.1997 5.15278 25.9722L25 6.12493L44.8472 25.986C45.1129 26.2136 45.4547 26.3325 45.8042 26.319C46.1538 26.3055 46.4854 26.1606 46.7327 25.9132C46.9801 25.6659 47.125 25.3343 47.1385 24.9847C47.152 24.6352 47.0331 24.2934 46.8056 24.0277L46.8194 24.0138Z" fill="#ED4599"/>
<path d="M38.8889 44.4443H31.9444V30.5554H18.0556V44.4443H11.1111V24.9998L8.33334 27.7776V44.4443C8.33334 45.181 8.62599 45.8875 9.14693 46.4085C9.66786 46.9294 10.3744 47.2221 11.1111 47.2221H20.8333V33.3332H29.1667V47.2221H38.8889C39.6256 47.2221 40.3321 46.9294 40.8531 46.4085C41.374 45.8875 41.6667 45.181 41.6667 44.4443V27.4443L38.8889 24.6665V44.4443Z" fill="#ED4599"/>
</svg>
