<svg width="48" height="46" viewBox="0 0 48 46" fill="none" xmlns="http://www.w3.org/2000/svg">
<path d="M28.5938 23C28.5938 25.4314 26.5371 27.4023 24 27.4023C21.4629 27.4023 19.4062 25.4314 19.4062 23C19.4062 20.5686 21.4629 18.5977 24 18.5977C26.5371 18.5977 28.5938 20.5686 28.5938 23Z" fill="#ED4599"/>
<path d="M34.7432 15.211C34.5223 14.6376 34.17 14.1185 33.7123 13.6925C33.2677 13.2538 32.7264 12.9162 32.1277 12.7045C31.6421 12.5238 30.9126 12.3087 29.569 12.2501C28.1155 12.1865 27.6797 12.1729 24 12.1729C20.3199 12.1729 19.8842 12.1862 18.431 12.2497C17.0874 12.3087 16.3575 12.5238 15.8723 12.7045C15.2736 12.9162 14.7319 13.2538 14.2877 13.6925C13.83 14.1185 13.4777 14.6372 13.2565 15.211C13.0679 15.6764 12.8434 16.3759 12.7822 17.6635C12.7159 19.0561 12.7017 19.4737 12.7017 23.0004C12.7017 26.5268 12.7159 26.9444 12.7822 28.3374C12.8434 29.625 13.0679 30.3241 13.2565 30.7895C13.4777 31.3633 13.8296 31.882 14.2874 32.308C14.7319 32.7467 15.2732 33.0843 15.8719 33.296C16.3575 33.4771 17.0874 33.6922 18.431 33.7508C19.8842 33.8143 20.3196 33.8277 23.9996 33.8277C27.6801 33.8277 28.1158 33.8143 29.5686 33.7508C30.9122 33.6922 31.6421 33.4771 32.1277 33.296C33.3296 32.8517 34.2795 31.9413 34.7432 30.7895C34.9318 30.3241 35.1562 29.625 35.2178 28.3374C35.2841 26.9444 35.298 26.5268 35.298 23.0004C35.298 19.4737 35.2841 19.0561 35.2178 17.6635C35.1566 16.3759 34.9321 15.6764 34.7432 15.211ZM24 29.7819C20.0914 29.7819 16.923 26.7458 16.923 23.0001C16.923 19.2544 20.0914 16.2183 24 16.2183C27.9082 16.2183 31.0767 19.2544 31.0767 23.0001C31.0767 26.7458 27.9082 29.7819 24 29.7819ZM31.3564 17.535C30.4431 17.535 29.7026 16.8254 29.7026 15.9501C29.7026 15.0749 30.4431 14.3652 31.3564 14.3652C32.2698 14.3652 33.0103 15.0749 33.0103 15.9501C33.0099 16.8254 32.2698 17.535 31.3564 17.535Z" fill="#ED4599"/>
<path d="M24 0C10.7472 0 0 10.2994 0 23C0 35.7006 10.7472 46 24 46C37.2528 46 48 35.7006 48 23C48 10.2994 37.2528 0 24 0ZM37.6981 28.445C37.6315 29.8509 37.3982 30.8108 37.0576 31.651C36.3417 33.425 34.8783 34.8274 33.0271 35.5135C32.1508 35.8399 31.1488 36.0631 29.6821 36.1274C28.2125 36.1916 27.743 36.207 24.0004 36.207C20.2573 36.207 19.7882 36.1916 18.3182 36.1274C16.8516 36.0631 15.8496 35.8399 14.9733 35.5135C14.0533 35.1819 13.2206 34.6621 12.5321 33.9901C11.8312 33.3306 11.2888 32.5322 10.9427 31.651C10.6022 30.8111 10.3689 29.8509 10.3022 28.4454C10.2345 27.0367 10.2188 26.5867 10.2188 23C10.2188 19.4133 10.2345 18.9633 10.3019 17.555C10.3685 16.1491 10.6014 15.1892 10.942 14.349C11.2881 13.4678 11.8308 12.6694 12.5321 12.0099C13.2202 11.3379 14.0533 10.8181 14.9729 10.4865C15.8496 10.1601 16.8512 9.93686 18.3182 9.87263C19.7878 9.80841 20.2573 9.79297 24 9.79297C27.7427 9.79297 28.2122 9.80841 29.6818 9.87299C31.1488 9.93686 32.1504 10.1601 33.0271 10.4861C33.9467 10.8177 34.7798 11.3379 35.4683 12.0099C36.1692 12.6697 36.7119 13.4678 37.0576 14.349C37.3986 15.1892 37.6315 16.1491 37.6985 17.555C37.7655 18.9633 37.7812 19.4133 37.7812 23C37.7812 26.5867 37.7655 27.0367 37.6981 28.445Z" fill="#ED4599"/>
</svg>
