<svg width="70" height="70" viewBox="0 0 70 70" fill="none" xmlns="http://www.w3.org/2000/svg">
<path d="M58.4792 32.0833H11.5208C9.99054 32.0833 8.75 33.3239 8.75 34.8542V35.1458C8.75 36.6761 9.99054 37.9167 11.5208 37.9167H58.4792C60.0095 37.9167 61.25 36.6761 61.25 35.1458V34.8542C61.25 33.3239 60.0095 32.0833 58.4792 32.0833Z" fill="#9400D3"/>
<path d="M58.4792 46.6667H11.5208C9.99054 46.6667 8.75 47.9072 8.75 49.4375V49.7292C8.75 51.2594 9.99054 52.5 11.5208 52.5H58.4792C60.0095 52.5 61.25 51.2594 61.25 49.7292V49.4375C61.25 47.9072 60.0095 46.6667 58.4792 46.6667Z" fill="#9400D3"/>
<path d="M58.4792 17.5H11.5208C9.99054 17.5 8.75 18.7405 8.75 20.2708V20.5625C8.75 22.0928 9.99054 23.3333 11.5208 23.3333H58.4792C60.0095 23.3333 61.25 22.0928 61.25 20.5625V20.2708C61.25 18.7405 60.0095 17.5 58.4792 17.5Z" fill="#9400D3"/>
</svg>
