<svg width="46" height="46" viewBox="0 0 46 46" fill="none" xmlns="http://www.w3.org/2000/svg">
<path d="M25.1339 6.45279C22.3661 6.45026 19.6597 7.26871 17.3571 8.80459C15.0545 10.3405 13.2592 12.5248 12.1982 15.0812C11.1373 17.6376 10.8584 20.4513 11.3968 23.1663C11.9352 25.8812 13.2668 28.3755 15.223 30.3335C17.1793 32.2916 19.6724 33.6254 22.3868 34.1663C25.1013 34.7072 27.9152 34.4309 30.4726 33.3723C33.03 32.3137 35.2159 30.5203 36.7539 28.2191C38.2919 25.9179 39.1128 23.2123 39.1128 20.4445C39.096 16.741 37.6183 13.1938 35.0007 10.5739C32.3832 7.95395 28.8374 6.47295 25.1339 6.45279ZM25.1339 3.83334C28.4193 3.83334 31.6309 4.80757 34.3626 6.63282C37.0943 8.45807 39.2233 11.0524 40.4806 14.0877C41.7379 17.1229 42.0668 20.4629 41.4259 23.6851C40.7849 26.9074 39.2029 29.8672 36.8798 32.1903C34.5567 34.5134 31.5968 36.0954 28.3746 36.7364C25.1524 37.3773 21.8124 37.0484 18.7771 35.7911C15.7419 34.5339 13.1476 32.4048 11.3223 29.6731C9.49705 26.9414 8.52283 23.7298 8.52283 20.4445C8.52283 16.0389 10.2729 11.8138 13.3881 8.69863C16.5033 5.58344 20.7284 3.83334 25.1339 3.83334Z" fill="#9400D3"/>
<path d="M1.27779 42.5372L10.695 33.0561L12.5095 34.8578L3.09224 44.3389C2.97394 44.458 2.83333 44.5527 2.67844 44.6175C2.52356 44.6823 2.35743 44.716 2.18953 44.7165C2.02164 44.7171 1.85528 44.6847 1.69993 44.621C1.54459 44.5573 1.40332 44.4636 1.28418 44.3453C1.16505 44.227 1.07037 44.0864 1.00558 43.9315C0.940779 43.7766 0.907119 43.6105 0.906526 43.4426C0.905931 43.2747 0.938414 43.1083 1.00212 42.953C1.06582 42.7976 1.15949 42.6564 1.27779 42.5372Z" fill="#9400D3"/>
</svg>
