<svg width="46" height="46" viewBox="0 0 46 46" fill="none" xmlns="http://www.w3.org/2000/svg">
<path d="M23 0C10.2994 0 0 10.2994 0 23C0 35.7006 10.2994 46 23 46C35.7006 46 46 35.7006 46 23C46 10.2994 35.7006 0 23 0ZM33.5015 17.933C33.5117 18.1593 33.5166 18.3867 33.5166 18.6152C33.5166 25.5911 28.2067 33.6353 18.4962 33.6356H18.4966H18.4962C15.5149 33.6356 12.7406 32.7617 10.4043 31.2642C10.8174 31.313 11.2378 31.3372 11.6635 31.3372C14.1371 31.3372 16.4133 30.4935 18.2204 29.0774C15.9094 29.0346 13.9609 27.5083 13.2885 25.4107C13.6103 25.4725 13.9412 25.5061 14.2806 25.5061C14.7625 25.5061 15.2292 25.4412 15.6728 25.3201C13.2572 24.8365 11.4375 22.7017 11.4375 20.1454C11.4375 20.1215 11.4375 20.1001 11.4382 20.078C12.1496 20.4735 12.9631 20.7114 13.8293 20.7381C12.4118 19.7923 11.48 18.1755 11.48 16.3438C11.48 15.3766 11.7415 14.4705 12.1949 13.6903C14.7982 16.8847 18.6889 18.9855 23.0765 19.2062C22.986 18.8195 22.9393 18.4166 22.9393 18.0024C22.9393 15.0881 25.3036 12.7238 28.219 12.7238C29.7376 12.7238 31.1091 13.3657 32.0725 14.3918C33.2752 14.1546 34.4045 13.7152 35.4248 13.1105C35.0299 14.3427 34.1933 15.3766 33.1032 16.0304C34.1712 15.9027 35.1889 15.6195 36.1347 15.199C35.4283 16.2579 34.5323 17.1879 33.5015 17.933Z" fill="#ED4599"/>
</svg>
