<svg width="48" height="48" viewBox="0 0 48 48" fill="none" xmlns="http://www.w3.org/2000/svg">
<path d="M24 4C13.158 4 4 13.158 4 24C4 34.842 13.158 44 24 44C34.842 44 44 34.842 44 24C44 13.158 34.842 4 24 4ZM24 14C27.454 14 30 16.544 30 20C30 23.456 27.454 26 24 26C20.548 26 18 23.456 18 20C18 16.544 20.548 14 24 14ZM13.788 33.544C15.582 30.904 18.574 29.144 22 29.144H26C29.428 29.144 32.418 30.904 34.212 33.544C31.656 36.28 28.03 38 24 38C19.97 38 16.344 36.28 13.788 33.544Z" fill="#34253C"/>
</svg>
